<svg xmlns="http://www.w3.org/2000/svg" viewBox="0 0 320 370" width="320" height="370">
<path d="M 264.00 158.00 L 263.95 160.33 L 263.82 162.66 L 263.59 164.98 L 263.27 167.29 L 262.86 169.57 L 262.36 171.83 L 261.78 174.07 L 261.11 176.27 L 260.36 178.44 L 259.52 180.57 L 258.61 182.65 L 257.62 184.68 L 256.56 186.66 L 255.42 188.59 L 254.22 190.45 L 252.96 192.26 L 251.63 193.99 L 250.25 195.66 L 248.81 197.26 L 247.33 198.78 L 245.79 200.23 L 244.22 201.60 L 242.61 202.89 L 240.97 204.10 L 239.31 205.23 L 237.62 206.27 L 235.91 207.23 L 234.18 208.10 L 232.45 208.89 L 230.71 209.60 L 228.97 210.22 L 227.24 210.76 L 225.52 211.21 L 223.81 211.58 L 222.11 211.87 L 220.44 212.08 L 218.80 212.21 L 217.18 212.27 L 215.61 212.26 L 214.06 212.17 L 212.57 212.02 L 211.11 211.80 L 209.71 211.51 L 208.36 211.17 L 207.06 210.78 L 205.82 210.33 L 204.65 209.83 L 203.53 209.29 L 202.49 208.70 L 201.50 208.09 L 200.59 207.43 L 199.75 206.76 L 198.98 206.05 L 198.28 205.33 L 197.65 204.59 L 197.10 203.85 L 196.63 203.09 L 196.22 202.34 L 195.89 201.59 L 195.63 200.85 L 195.45 200.12 L 195.34 199.40 L 195.29 198.71 L 195.31 198.04 L 195.40 197.40 L 195.56 196.79 L 195.77 196.22 L 196.05 195.69 L 196.38 195.21 L 196.77 194.77 L 197.21 194.38 L 197.69 194.05 L 198.22 193.77 L 198.79 193.56 L 199.40 193.40 L 200.04 193.31 L 200.71 193.29 L 201.40 193.34 L 202.12 193.45 L 202.85 193.63 L 203.59 193.89 L 204.34 194.22 L 205.09 194.63 L 205.85 195.10 L 206.59 195.65 L 207.33 196.28 L 208.05 196.98 L 208.76 197.75 L 209.43 198.59 L 210.09 199.50 L 210.70 200.49 L 211.29 201.53 L 211.83 202.65 L 212.33 203.82 L 212.78 205.06 L 213.17 206.36 L 213.51 207.71 L 213.80 209.11 L 214.02 210.57 L 214.17 212.06 L 214.26 213.61 L 214.27 215.18 L 214.21 216.80 L 214.08 218.44 L 213.87 220.11 L 213.58 221.81 L 213.21 223.52 L 212.76 225.24 L 212.22 226.97 L 211.60 228.71 L 210.89 230.45 L 210.10 232.18 L 209.23 233.91 L 208.27 235.62 L 207.23 237.31 L 206.10 238.97 L 204.89 240.61 L 203.60 242.22 L 202.23 243.79 L 200.78 245.33 L 199.26 246.81 L 197.66 248.25 L 195.99 249.63 L 194.26 250.96 L 192.45 252.22 L 190.59 253.42 L 188.66 254.56 L 186.68 255.62 L 184.65 256.61 L 182.57 257.52 L 180.44 258.36 L 178.27 259.11 L 176.07 259.78 L 173.83 260.36 L 171.57 260.86 L 169.29 261.27 L 166.98 261.59 L 164.66 261.82 L 162.33 261.95 L 160.00 262.00 L 157.67 261.95 L 155.34 261.82 L 153.02 261.59 L 150.71 261.27 L 148.43 260.86 L 146.17 260.36 L 143.93 259.78 L 141.73 259.11 L 139.56 258.36 L 137.43 257.52 L 135.35 256.61 L 133.32 255.62 L 131.34 254.56 L 129.41 253.42 L 127.55 252.22 L 125.74 250.96 L 124.01 249.63 L 122.34 248.25 L 120.74 246.81 L 119.22 245.33 L 117.77 243.79 L 116.40 242.22 L 115.11 240.61 L 113.90 238.97 L 112.77 237.31 L 111.73 235.62 L 110.77 233.91 L 109.90 232.18 L 109.11 230.45 L 108.40 228.71 L 107.78 226.97 L 107.24 225.24 L 106.79 223.52 L 106.42 221.81 L 106.13 220.11 L 105.92 218.44 L 105.79 216.80 L 105.73 215.18 L 105.74 213.61 L 105.83 212.06 L 105.98 210.57 L 106.20 209.11 L 106.49 207.71 L 106.83 206.36 L 107.22 205.06 L 107.67 203.82 L 108.17 202.65 L 108.71 201.53 L 109.30 200.49 L 109.91 199.50 L 110.57 198.59 L 111.24 197.75 L 111.95 196.98 L 112.67 196.28 L 113.41 195.65 L 114.15 195.10 L 114.91 194.63 L 115.66 194.22 L 116.41 193.89 L 117.15 193.63 L 117.88 193.45 L 118.60 193.34 L 119.29 193.29 L 119.96 193.31 L 120.60 193.40 L 121.21 193.56 L 121.78 193.77 L 122.31 194.05 L 122.79 194.38 L 123.23 194.77 L 123.62 195.21 L 123.95 195.69 L 124.23 196.22 L 124.44 196.79 L 124.60 197.40 L 124.69 198.04 L 124.71 198.71 L 124.66 199.40 L 124.55 200.12 L 124.37 200.85 L 124.11 201.59 L 123.78 202.34 L 123.37 203.09 L 122.90 203.85 L 122.35 204.59 L 121.72 205.33 L 121.02 206.05 L 120.25 206.76 L 119.41 207.43 L 118.50 208.09 L 117.51 208.70 L 116.47 209.29 L 115.35 209.83 L 114.18 210.33 L 112.94 210.78 L 111.64 211.17 L 110.29 211.51 L 108.89 211.80 L 107.43 212.02 L 105.94 212.17 L 104.39 212.26 L 102.82 212.27 L 101.20 212.21 L 99.56 212.08 L 97.89 211.87 L 96.19 211.58 L 94.48 211.21 L 92.76 210.76 L 91.03 210.22 L 89.29 209.60 L 87.55 208.89 L 85.82 208.10 L 84.09 207.23 L 82.38 206.27 L 80.69 205.23 L 79.03 204.10 L 77.39 202.89 L 75.78 201.60 L 74.21 200.23 L 72.67 198.78 L 71.19 197.26 L 69.75 195.66 L 68.37 193.99 L 67.04 192.26 L 65.78 190.45 L 64.58 188.59 L 63.44 186.66 L 62.38 184.68 L 61.39 182.65 L 60.48 180.57 L 59.64 178.44 L 58.89 176.27 L 58.22 174.07 L 57.64 171.83 L 57.14 169.57 L 56.73 167.29 L 56.41 164.98 L 56.18 162.66 L 56.05 160.33 L 56.00 158.00 L 56.05 155.67 L 56.18 153.34 L 56.41 151.02 L 56.73 148.71 L 57.14 146.43 L 57.64 144.17 L 58.22 141.93 L 58.89 139.73 L 59.64 137.56 L 60.48 135.43 L 61.39 133.35 L 62.38 131.32 L 63.44 129.34 L 64.58 127.41 L 65.78 125.55 L 67.04 123.74 L 68.37 122.01 L 69.75 120.34 L 71.19 118.74 L 72.67 117.22 L 74.21 115.77 L 75.78 114.40 L 77.39 113.11 L 79.03 111.90 L 80.69 110.77 L 82.38 109.73 L 84.09 108.77 L 85.82 107.90 L 87.55 107.11 L 89.29 106.40 L 91.03 105.78 L 92.76 105.24 L 94.48 104.79 L 96.19 104.42 L 97.89 104.13 L 99.56 103.92 L 101.20 103.79 L 102.82 103.73 L 104.39 103.74 L 105.94 103.83 L 107.43 103.98 L 108.89 104.20 L 110.29 104.49 L 111.64 104.83 L 112.94 105.22 L 114.18 105.67 L 115.35 106.17 L 116.47 106.71 L 117.51 107.30 L 118.50 107.91 L 119.41 108.57 L 120.25 109.24 L 121.02 109.95 L 121.72 110.67 L 122.35 111.41 L 122.90 112.15 L 123.37 112.91 L 123.78 113.66 L 124.11 114.41 L 124.37 115.15 L 124.55 115.88 L 124.66 116.60 L 124.71 117.29 L 124.69 117.96 L 124.60 118.60 L 124.44 119.21 L 124.23 119.78 L 123.95 120.31 L 123.62 120.79 L 123.23 121.23 L 122.79 121.62 L 122.31 121.95 L 121.78 122.23 L 121.21 122.44 L 120.60 122.60 L 119.96 122.69 L 119.29 122.71 L 118.60 122.66 L 117.88 122.55 L 117.15 122.37 L 116.41 122.11 L 115.66 121.78 L 114.91 121.37 L 114.15 120.90 L 113.41 120.35 L 112.67 119.72 L 111.95 119.02 L 111.24 118.25 L 110.57 117.41 L 109.91 116.50 L 109.30 115.51 L 108.71 114.47 L 108.17 113.35 L 107.67 112.18 L 107.22 110.94 L 106.83 109.64 L 106.49 108.29 L 106.20 106.89 L 105.98 105.43 L 105.83 103.94 L 105.74 102.39 L 105.73 100.82 L 105.79 99.20 L 105.92 97.56 L 106.13 95.89 L 106.42 94.19 L 106.79 92.48 L 107.24 90.76 L 107.78 89.03 L 108.40 87.29 L 109.11 85.55 L 109.90 83.82 L 110.77 82.09 L 111.73 80.38 L 112.77 78.69 L 113.90 77.03 L 115.11 75.39 L 116.40 73.78 L 117.77 72.21 L 119.22 70.67 L 120.74 69.19 L 122.34 67.75 L 124.01 66.37 L 125.74 65.04 L 127.55 63.78 L 129.41 62.58 L 131.34 61.44 L 133.32 60.38 L 135.35 59.39 L 137.43 58.48 L 139.56 57.64 L 141.73 56.89 L 143.93 56.22 L 146.17 55.64 L 148.43 55.14 L 150.71 54.73 L 153.02 54.41 L 155.34 54.18 L 157.67 54.05 L 160.00 54.00 L 162.33 54.05 L 164.66 54.18 L 166.98 54.41 L 169.29 54.73 L 171.57 55.14 L 173.83 55.64 L 176.07 56.22 L 178.27 56.89 L 180.44 57.64 L 182.57 58.48 L 184.65 59.39 L 186.68 60.38 L 188.66 61.44 L 190.59 62.58 L 192.45 63.78 L 194.26 65.04 L 195.99 66.37 L 197.66 67.75 L 199.26 69.19 L 200.78 70.67 L 202.23 72.21 L 203.60 73.78 L 204.89 75.39 L 206.10 77.03 L 207.23 78.69 L 208.27 80.38 L 209.23 82.09 L 210.10 83.82 L 210.89 85.55 L 211.60 87.29 L 212.22 89.03 L 212.76 90.76 L 213.21 92.48 L 213.58 94.19 L 213.87 95.89 L 214.08 97.56 L 214.21 99.20 L 214.27 100.82 L 214.26 102.39 L 214.17 103.94 L 214.02 105.43 L 213.80 106.89 L 213.51 108.29 L 213.17 109.64 L 212.78 110.94 L 212.33 112.18 L 211.83 113.35 L 211.29 114.47 L 210.70 115.51 L 210.09 116.50 L 209.43 117.41 L 208.76 118.25 L 208.05 119.02 L 207.33 119.72 L 206.59 120.35 L 205.85 120.90 L 205.09 121.37 L 204.34 121.78 L 203.59 122.11 L 202.85 122.37 L 202.12 122.55 L 201.40 122.66 L 200.71 122.71 L 200.04 122.69 L 199.40 122.60 L 198.79 122.44 L 198.22 122.23 L 197.69 121.95 L 197.21 121.62 L 196.77 121.23 L 196.38 120.79 L 196.05 120.31 L 195.77 119.78 L 195.56 119.21 L 195.40 118.60 L 195.31 117.96 L 195.29 117.29 L 195.34 116.60 L 195.45 115.88 L 195.63 115.15 L 195.89 114.41 L 196.22 113.66 L 196.63 112.91 L 197.10 112.15 L 197.65 111.41 L 198.28 110.67 L 198.98 109.95 L 199.75 109.24 L 200.59 108.57 L 201.50 107.91 L 202.49 107.30 L 203.53 106.71 L 204.65 106.17 L 205.82 105.67 L 207.06 105.22 L 208.36 104.83 L 209.71 104.49 L 211.11 104.20 L 212.57 103.98 L 214.06 103.83 L 215.61 103.74 L 217.18 103.73 L 218.80 103.79 L 220.44 103.92 L 222.11 104.13 L 223.81 104.42 L 225.52 104.79 L 227.24 105.24 L 228.97 105.78 L 230.71 106.40 L 232.45 107.11 L 234.18 107.90 L 235.91 108.77 L 237.62 109.73 L 239.31 110.77 L 240.97 111.90 L 242.61 113.11 L 244.22 114.40 L 245.79 115.77 L 247.33 117.22 L 248.81 118.74 L 250.25 120.34 L 251.63 122.01 L 252.96 123.74 L 254.22 125.55 L 255.42 127.41 L 256.56 129.34 L 257.62 131.32 L 258.61 133.35 L 259.52 135.43 L 260.36 137.56 L 261.11 139.73 L 261.78 141.93 L 262.36 144.17 L 262.86 146.43 L 263.27 148.71 L 263.59 151.02 L 263.82 153.34 L 263.95 155.67 L 264.00 158.00" stroke="#e8e6e3" fill="none"
      stroke-width="1" opacity="0.22"/>
<circle cx="160" cy="158" r="78" stroke="#e8e6e3" fill="none" stroke-width="1.6"
      stroke-dasharray="4 5" opacity="0.6"/>
<circle cx="160" cy="158" r="3.6" fill="#e8e6e3"/>
<g>
  <animateTransform attributeName="transform" type="rotate"
    from="0 160 158" to="360 160 158" dur="24s" repeatCount="indefinite"/>
  <line x1="160" y1="158" x2="238" y2="158" stroke="#e8e6e3" stroke-width="1.3"/>
  <circle cx="238" cy="158" r="26" stroke="#e8e6e3" fill="none" stroke-width="1.8"/>
  <circle cx="238" cy="158" r="2.4" fill="#e8e6e3"/>
  <g>
    <animateTransform attributeName="transform" type="rotate"
      from="0 238 158" to="360 238 158" dur="6s" repeatCount="indefinite"/>
    <line x1="238" y1="158" x2="264" y2="158" stroke="#e8e6e3" stroke-width="1.3"/>
    <path d="M 264.00 147.00 L 266.97 155.03 L 275.00 158.00 L 266.97 160.97 L 264.00 169.00 L 261.03 160.97 L 253.00 158.00 L 261.03 155.03 Z" fill="#d4a017"/>
  </g>
</g>
<text x="157" y="336" text-anchor="middle" font-family="Georgia, 'Times New Roman', serif" font-size="31" letter-spacing="6" fill="#e8e6e3">ALMAGESTO</text>
</svg>
