<svg xmlns="http://www.w3.org/2000/svg" viewBox="0 0 320 320" width="320" height="320">
<path d="M 264.00 160.00 L 263.95 162.33 L 263.82 164.66 L 263.59 166.98 L 263.27 169.29 L 262.86 171.57 L 262.36 173.83 L 261.78 176.07 L 261.11 178.27 L 260.36 180.44 L 259.52 182.57 L 258.61 184.65 L 257.62 186.68 L 256.56 188.66 L 255.42 190.59 L 254.22 192.45 L 252.96 194.26 L 251.63 195.99 L 250.25 197.66 L 248.81 199.26 L 247.33 200.78 L 245.79 202.23 L 244.22 203.60 L 242.61 204.89 L 240.97 206.10 L 239.31 207.23 L 237.62 208.27 L 235.91 209.23 L 234.18 210.10 L 232.45 210.89 L 230.71 211.60 L 228.97 212.22 L 227.24 212.76 L 225.52 213.21 L 223.81 213.58 L 222.11 213.87 L 220.44 214.08 L 218.80 214.21 L 217.18 214.27 L 215.61 214.26 L 214.06 214.17 L 212.57 214.02 L 211.11 213.80 L 209.71 213.51 L 208.36 213.17 L 207.06 212.78 L 205.82 212.33 L 204.65 211.83 L 203.53 211.29 L 202.49 210.70 L 201.50 210.09 L 200.59 209.43 L 199.75 208.76 L 198.98 208.05 L 198.28 207.33 L 197.65 206.59 L 197.10 205.85 L 196.63 205.09 L 196.22 204.34 L 195.89 203.59 L 195.63 202.85 L 195.45 202.12 L 195.34 201.40 L 195.29 200.71 L 195.31 200.04 L 195.40 199.40 L 195.56 198.79 L 195.77 198.22 L 196.05 197.69 L 196.38 197.21 L 196.77 196.77 L 197.21 196.38 L 197.69 196.05 L 198.22 195.77 L 198.79 195.56 L 199.40 195.40 L 200.04 195.31 L 200.71 195.29 L 201.40 195.34 L 202.12 195.45 L 202.85 195.63 L 203.59 195.89 L 204.34 196.22 L 205.09 196.63 L 205.85 197.10 L 206.59 197.65 L 207.33 198.28 L 208.05 198.98 L 208.76 199.75 L 209.43 200.59 L 210.09 201.50 L 210.70 202.49 L 211.29 203.53 L 211.83 204.65 L 212.33 205.82 L 212.78 207.06 L 213.17 208.36 L 213.51 209.71 L 213.80 211.11 L 214.02 212.57 L 214.17 214.06 L 214.26 215.61 L 214.27 217.18 L 214.21 218.80 L 214.08 220.44 L 213.87 222.11 L 213.58 223.81 L 213.21 225.52 L 212.76 227.24 L 212.22 228.97 L 211.60 230.71 L 210.89 232.45 L 210.10 234.18 L 209.23 235.91 L 208.27 237.62 L 207.23 239.31 L 206.10 240.97 L 204.89 242.61 L 203.60 244.22 L 202.23 245.79 L 200.78 247.33 L 199.26 248.81 L 197.66 250.25 L 195.99 251.63 L 194.26 252.96 L 192.45 254.22 L 190.59 255.42 L 188.66 256.56 L 186.68 257.62 L 184.65 258.61 L 182.57 259.52 L 180.44 260.36 L 178.27 261.11 L 176.07 261.78 L 173.83 262.36 L 171.57 262.86 L 169.29 263.27 L 166.98 263.59 L 164.66 263.82 L 162.33 263.95 L 160.00 264.00 L 157.67 263.95 L 155.34 263.82 L 153.02 263.59 L 150.71 263.27 L 148.43 262.86 L 146.17 262.36 L 143.93 261.78 L 141.73 261.11 L 139.56 260.36 L 137.43 259.52 L 135.35 258.61 L 133.32 257.62 L 131.34 256.56 L 129.41 255.42 L 127.55 254.22 L 125.74 252.96 L 124.01 251.63 L 122.34 250.25 L 120.74 248.81 L 119.22 247.33 L 117.77 245.79 L 116.40 244.22 L 115.11 242.61 L 113.90 240.97 L 112.77 239.31 L 111.73 237.62 L 110.77 235.91 L 109.90 234.18 L 109.11 232.45 L 108.40 230.71 L 107.78 228.97 L 107.24 227.24 L 106.79 225.52 L 106.42 223.81 L 106.13 222.11 L 105.92 220.44 L 105.79 218.80 L 105.73 217.18 L 105.74 215.61 L 105.83 214.06 L 105.98 212.57 L 106.20 211.11 L 106.49 209.71 L 106.83 208.36 L 107.22 207.06 L 107.67 205.82 L 108.17 204.65 L 108.71 203.53 L 109.30 202.49 L 109.91 201.50 L 110.57 200.59 L 111.24 199.75 L 111.95 198.98 L 112.67 198.28 L 113.41 197.65 L 114.15 197.10 L 114.91 196.63 L 115.66 196.22 L 116.41 195.89 L 117.15 195.63 L 117.88 195.45 L 118.60 195.34 L 119.29 195.29 L 119.96 195.31 L 120.60 195.40 L 121.21 195.56 L 121.78 195.77 L 122.31 196.05 L 122.79 196.38 L 123.23 196.77 L 123.62 197.21 L 123.95 197.69 L 124.23 198.22 L 124.44 198.79 L 124.60 199.40 L 124.69 200.04 L 124.71 200.71 L 124.66 201.40 L 124.55 202.12 L 124.37 202.85 L 124.11 203.59 L 123.78 204.34 L 123.37 205.09 L 122.90 205.85 L 122.35 206.59 L 121.72 207.33 L 121.02 208.05 L 120.25 208.76 L 119.41 209.43 L 118.50 210.09 L 117.51 210.70 L 116.47 211.29 L 115.35 211.83 L 114.18 212.33 L 112.94 212.78 L 111.64 213.17 L 110.29 213.51 L 108.89 213.80 L 107.43 214.02 L 105.94 214.17 L 104.39 214.26 L 102.82 214.27 L 101.20 214.21 L 99.56 214.08 L 97.89 213.87 L 96.19 213.58 L 94.48 213.21 L 92.76 212.76 L 91.03 212.22 L 89.29 211.60 L 87.55 210.89 L 85.82 210.10 L 84.09 209.23 L 82.38 208.27 L 80.69 207.23 L 79.03 206.10 L 77.39 204.89 L 75.78 203.60 L 74.21 202.23 L 72.67 200.78 L 71.19 199.26 L 69.75 197.66 L 68.37 195.99 L 67.04 194.26 L 65.78 192.45 L 64.58 190.59 L 63.44 188.66 L 62.38 186.68 L 61.39 184.65 L 60.48 182.57 L 59.64 180.44 L 58.89 178.27 L 58.22 176.07 L 57.64 173.83 L 57.14 171.57 L 56.73 169.29 L 56.41 166.98 L 56.18 164.66 L 56.05 162.33 L 56.00 160.00 L 56.05 157.67 L 56.18 155.34 L 56.41 153.02 L 56.73 150.71 L 57.14 148.43 L 57.64 146.17 L 58.22 143.93 L 58.89 141.73 L 59.64 139.56 L 60.48 137.43 L 61.39 135.35 L 62.38 133.32 L 63.44 131.34 L 64.58 129.41 L 65.78 127.55 L 67.04 125.74 L 68.37 124.01 L 69.75 122.34 L 71.19 120.74 L 72.67 119.22 L 74.21 117.77 L 75.78 116.40 L 77.39 115.11 L 79.03 113.90 L 80.69 112.77 L 82.38 111.73 L 84.09 110.77 L 85.82 109.90 L 87.55 109.11 L 89.29 108.40 L 91.03 107.78 L 92.76 107.24 L 94.48 106.79 L 96.19 106.42 L 97.89 106.13 L 99.56 105.92 L 101.20 105.79 L 102.82 105.73 L 104.39 105.74 L 105.94 105.83 L 107.43 105.98 L 108.89 106.20 L 110.29 106.49 L 111.64 106.83 L 112.94 107.22 L 114.18 107.67 L 115.35 108.17 L 116.47 108.71 L 117.51 109.30 L 118.50 109.91 L 119.41 110.57 L 120.25 111.24 L 121.02 111.95 L 121.72 112.67 L 122.35 113.41 L 122.90 114.15 L 123.37 114.91 L 123.78 115.66 L 124.11 116.41 L 124.37 117.15 L 124.55 117.88 L 124.66 118.60 L 124.71 119.29 L 124.69 119.96 L 124.60 120.60 L 124.44 121.21 L 124.23 121.78 L 123.95 122.31 L 123.62 122.79 L 123.23 123.23 L 122.79 123.62 L 122.31 123.95 L 121.78 124.23 L 121.21 124.44 L 120.60 124.60 L 119.96 124.69 L 119.29 124.71 L 118.60 124.66 L 117.88 124.55 L 117.15 124.37 L 116.41 124.11 L 115.66 123.78 L 114.91 123.37 L 114.15 122.90 L 113.41 122.35 L 112.67 121.72 L 111.95 121.02 L 111.24 120.25 L 110.57 119.41 L 109.91 118.50 L 109.30 117.51 L 108.71 116.47 L 108.17 115.35 L 107.67 114.18 L 107.22 112.94 L 106.83 111.64 L 106.49 110.29 L 106.20 108.89 L 105.98 107.43 L 105.83 105.94 L 105.74 104.39 L 105.73 102.82 L 105.79 101.20 L 105.92 99.56 L 106.13 97.89 L 106.42 96.19 L 106.79 94.48 L 107.24 92.76 L 107.78 91.03 L 108.40 89.29 L 109.11 87.55 L 109.90 85.82 L 110.77 84.09 L 111.73 82.38 L 112.77 80.69 L 113.90 79.03 L 115.11 77.39 L 116.40 75.78 L 117.77 74.21 L 119.22 72.67 L 120.74 71.19 L 122.34 69.75 L 124.01 68.37 L 125.74 67.04 L 127.55 65.78 L 129.41 64.58 L 131.34 63.44 L 133.32 62.38 L 135.35 61.39 L 137.43 60.48 L 139.56 59.64 L 141.73 58.89 L 143.93 58.22 L 146.17 57.64 L 148.43 57.14 L 150.71 56.73 L 153.02 56.41 L 155.34 56.18 L 157.67 56.05 L 160.00 56.00 L 162.33 56.05 L 164.66 56.18 L 166.98 56.41 L 169.29 56.73 L 171.57 57.14 L 173.83 57.64 L 176.07 58.22 L 178.27 58.89 L 180.44 59.64 L 182.57 60.48 L 184.65 61.39 L 186.68 62.38 L 188.66 63.44 L 190.59 64.58 L 192.45 65.78 L 194.26 67.04 L 195.99 68.37 L 197.66 69.75 L 199.26 71.19 L 200.78 72.67 L 202.23 74.21 L 203.60 75.78 L 204.89 77.39 L 206.10 79.03 L 207.23 80.69 L 208.27 82.38 L 209.23 84.09 L 210.10 85.82 L 210.89 87.55 L 211.60 89.29 L 212.22 91.03 L 212.76 92.76 L 213.21 94.48 L 213.58 96.19 L 213.87 97.89 L 214.08 99.56 L 214.21 101.20 L 214.27 102.82 L 214.26 104.39 L 214.17 105.94 L 214.02 107.43 L 213.80 108.89 L 213.51 110.29 L 213.17 111.64 L 212.78 112.94 L 212.33 114.18 L 211.83 115.35 L 211.29 116.47 L 210.70 117.51 L 210.09 118.50 L 209.43 119.41 L 208.76 120.25 L 208.05 121.02 L 207.33 121.72 L 206.59 122.35 L 205.85 122.90 L 205.09 123.37 L 204.34 123.78 L 203.59 124.11 L 202.85 124.37 L 202.12 124.55 L 201.40 124.66 L 200.71 124.71 L 200.04 124.69 L 199.40 124.60 L 198.79 124.44 L 198.22 124.23 L 197.69 123.95 L 197.21 123.62 L 196.77 123.23 L 196.38 122.79 L 196.05 122.31 L 195.77 121.78 L 195.56 121.21 L 195.40 120.60 L 195.31 119.96 L 195.29 119.29 L 195.34 118.60 L 195.45 117.88 L 195.63 117.15 L 195.89 116.41 L 196.22 115.66 L 196.63 114.91 L 197.10 114.15 L 197.65 113.41 L 198.28 112.67 L 198.98 111.95 L 199.75 111.24 L 200.59 110.57 L 201.50 109.91 L 202.49 109.30 L 203.53 108.71 L 204.65 108.17 L 205.82 107.67 L 207.06 107.22 L 208.36 106.83 L 209.71 106.49 L 211.11 106.20 L 212.57 105.98 L 214.06 105.83 L 215.61 105.74 L 217.18 105.73 L 218.80 105.79 L 220.44 105.92 L 222.11 106.13 L 223.81 106.42 L 225.52 106.79 L 227.24 107.24 L 228.97 107.78 L 230.71 108.40 L 232.45 109.11 L 234.18 109.90 L 235.91 110.77 L 237.62 111.73 L 239.31 112.77 L 240.97 113.90 L 242.61 115.11 L 244.22 116.40 L 245.79 117.77 L 247.33 119.22 L 248.81 120.74 L 250.25 122.34 L 251.63 124.01 L 252.96 125.74 L 254.22 127.55 L 255.42 129.41 L 256.56 131.34 L 257.62 133.32 L 258.61 135.35 L 259.52 137.43 L 260.36 139.56 L 261.11 141.73 L 261.78 143.93 L 262.36 146.17 L 262.86 148.43 L 263.27 150.71 L 263.59 153.02 L 263.82 155.34 L 263.95 157.67 L 264.00 160.00" stroke="#7d8590" fill="none"
      stroke-width="1" opacity="0.3"/>
<circle cx="160" cy="160" r="78" stroke="#7d8590" fill="none" stroke-width="1.6"
      stroke-dasharray="4 5" opacity="0.6"/>
<circle cx="160" cy="160" r="3.6" fill="#7d8590"/>
<g>
  <animateTransform attributeName="transform" type="rotate"
    from="0 160 160" to="360 160 160" dur="24s" repeatCount="indefinite"/>
  <line x1="160" y1="160" x2="238" y2="160" stroke="#7d8590" stroke-width="1.3"/>
  <circle cx="238" cy="160" r="26" stroke="#7d8590" fill="none" stroke-width="1.8"/>
  <circle cx="238" cy="160" r="2.4" fill="#7d8590"/>
  <g>
    <animateTransform attributeName="transform" type="rotate"
      from="0 238 160" to="360 238 160" dur="6s" repeatCount="indefinite"/>
    <line x1="238" y1="160" x2="264" y2="160" stroke="#7d8590" stroke-width="1.3"/>
    <path d="M 264.00 149.00 L 266.97 157.03 L 275.00 160.00 L 266.97 162.97 L 264.00 171.00 L 261.03 162.97 L 253.00 160.00 L 261.03 157.03 Z" fill="#d4a017"/>
  </g>
</g>
</svg>
