<svg xmlns="http://www.w3.org/2000/svg" viewBox="0 0 1280 640" width="1280" height="640">
<rect width="1280" height="640" fill="#efe6d3"/><rect x="34" y="34" width="1212" height="572" fill="none" stroke="#8a795a" stroke-width="1.5"/><rect x="42" y="42" width="1196" height="556" fill="none" stroke="#8a795a" stroke-width="0.8"/><g transform="translate(120 60) scale(1.625)"><path d="M 138.95 153.16 L 138.84 153.43 L 138.71 153.70 L 138.54 153.95 L 138.35 154.19 L 138.12 154.41 L 137.87 154.61 L 137.60 154.80 L 137.30 154.96 L 136.97 155.11 L 136.62 155.23 L 136.25 155.33 L 135.85 155.41 L 135.44 155.46 L 135.00 155.48 L 134.55 155.47 L 134.08 155.44 L 133.59 155.38 L 133.09 155.29 L 132.58 155.16 L 132.05 155.00 L 131.52 154.82 L 130.97 154.59 L 130.42 154.34 L 129.86 154.05 L 129.30 153.72 L 128.73 153.36 L 128.16 152.96 L 127.60 152.53 L 127.03 152.06 L 126.47 151.55 L 125.91 151.00 L 125.36 150.42 L 124.82 149.81 L 124.28 149.15 L 123.76 148.46 L 123.26 147.73 L 122.76 146.97 L 122.29 146.17 L 121.83 145.33 L 121.39 144.46 L 120.97 143.56 L 120.58 142.62 L 120.21 141.64 L 119.86 140.64 L 119.55 139.60 L 119.26 138.53 L 119.00 137.43 L 118.78 136.30 L 118.59 135.15 L 118.43 133.96 L 118.31 132.75 L 118.23 131.52 L 118.18 130.26 L 118.18 128.98 L 118.21 127.67 L 118.29 126.35 L 118.42 125.01 L 118.59 123.65 L 118.80 122.28 L 119.06 120.89 L 119.37 119.49 L 119.72 118.08 L 120.13 116.66 L 120.58 115.23 L 121.09 113.80 L 121.64 112.37 L 122.25 110.93 L 122.91 109.49 L 123.62 108.05 L 124.39 106.62 L 125.21 105.19 L 126.08 103.77 L 127.00 102.36 L 127.98 100.96 L 129.02 99.58 L 130.10 98.21 L 131.25 96.85 L 132.44 95.52 L 133.69 94.21 L 134.99 92.92 L 136.34 91.65 L 137.74 90.41 L 139.20 89.21 L 140.71 88.03 L 142.26 86.88 L 143.87 85.77 L 145.52 84.70 L 147.23 83.66 L 148.98 82.67 L 150.77 81.72 L 152.61 80.81 L 154.49 79.95 L 156.42 79.13 L 158.38 78.37 L 160.39 77.65 L 162.43 76.99 L 164.51 76.39 L 166.63 75.83 L 168.78 75.34 L 170.96 74.90 L 173.17 74.53 L 175.40 74.21 L 177.67 73.96 L 179.96 73.78 L 182.27 73.65 L 184.61 73.60 L 186.96 73.61 L 189.33 73.69 L 191.71 73.83 L 194.11 74.05 L 196.52 74.34 L 198.93 74.70 L 201.35 75.14 L 203.78 75.64 L 206.20 76.22 L 208.63 76.87 L 211.05 77.60 L 213.47 78.40 L 215.87 79.27 L 218.27 80.22 L 220.66 81.25 L 223.03 82.35 L 225.38 83.52 L 227.71 84.77 L 230.02 86.09 L 232.31 87.49 L 234.57 88.96 L 236.80 90.50 L 238.99 92.11 L 241.15 93.80 L 243.28 95.55 L 245.37 97.38 L 247.41 99.27 L 249.41 101.23 L 251.37 103.26 L 253.28 105.36 L 255.13 107.52 L 256.94 109.74 L 258.68 112.03 L 260.38 114.37 L 262.01 116.78 L 263.58 119.24 L 265.09 121.75 L 266.53 124.33 L 267.91 126.95 L 269.22 129.62 L 270.46 132.34 L 271.62 135.11 L 272.72 137.92 L 273.73 140.78 L 274.67 143.67 L 275.53 146.61 L 276.31 149.58 L 277.01 152.58 L 277.63 155.61 L 278.16 158.67 L 278.61 161.76 L 278.98 164.87 L 279.25 168.00 L 279.44 171.15 L 279.54 174.32 L 279.55 177.50 L 279.47 180.69 L 279.30 183.88 L 279.04 187.09 L 278.69 190.29 L 278.25 193.50 L 277.71 196.70 L 277.08 199.90 L 276.37 203.09 L 275.55 206.26 L 274.65 209.42 L 273.65 212.57 L 272.57 215.70 L 271.39 218.80 L 270.12 221.88 L 268.76 224.93 L 267.32 227.95 L 265.78 230.93 L 264.16 233.88 L 262.45 236.79 L 260.65 239.66 L 258.77 242.48 L 256.80 245.26 L 254.76 247.99 L 252.63 250.66 L 250.42 253.28 L 248.14 255.85 L 245.77 258.35 L 243.34 260.79 L 240.83 263.17 L 238.24 265.48 L 235.59 267.73 L 232.87 269.90 L 230.09 272.00 L 227.24 274.02 L 224.33 275.97 L 221.37 277.84 L 218.34 279.63 L 215.26 281.33 L 212.13 282.95 L 208.95 284.49 L 205.72 285.94 L 202.45 287.30 L 199.14 288.56 L 195.78 289.74 L 192.39 290.82 L 188.97 291.81 L 185.51 292.71 L 182.03 293.51 L 178.52 294.21 L 174.99 294.81 L 171.43 295.32 L 167.87 295.72 L 164.28 296.03 L 160.69 296.23 L 157.09 296.34 L 153.48 296.34 L 149.87 296.24 L 146.26 296.04 L 142.66 295.74 L 139.06 295.34 L 135.48 294.84 L 131.90 294.24 L 128.34 293.53 L 124.80 292.73 L 121.29 291.82 L 117.79 290.82 L 114.33 289.72 L 110.89 288.53 L 107.49 287.23 L 104.13 285.84 L 100.80 284.36 L 97.52 282.78 L 94.28 281.12 L 91.09 279.36 L 87.95 277.51 L 84.86 275.58 L 81.83 273.55 L 78.85 271.45 L 75.93 269.26 L 73.08 266.99 L 70.29 264.65 L 67.57 262.22 L 64.92 259.72 L 62.34 257.15 L 59.83 254.51 L 57.40 251.80 L 55.05 249.02 L 52.78 246.18 L 50.58 243.28 L 48.48 240.32 L 46.45 237.30 L 44.52 234.23 L 42.67 231.11 L 40.91 227.94 L 39.24 224.72 L 37.66 221.46 L 36.18 218.16 L 34.79 214.83 L 33.49 211.45 L 32.29 208.05 L 31.19 204.62 L 30.19 201.16 L 29.28 197.68 L 28.47 194.17 L 27.77 190.65 L 27.16 187.12 L 26.65 183.57 L 26.24 180.02 L 25.94 176.46 L 25.73 172.90 L 25.62 169.34 L 25.61 165.78 L 25.71 162.23 L 25.90 158.69 L 26.19 155.16 L 26.58 151.64 L 27.06 148.15 L 27.65 144.67 L 28.32 141.22 L 29.10 137.80 L 29.97 134.40 L 30.93 131.04 L 31.98 127.71 L 33.13 124.42 L 34.36 121.17 L 35.68 117.96 L 37.09 114.80 L 38.59 111.68 L 40.16 108.61 L 41.82 105.60 L 43.56 102.64 L 45.38 99.74 L 47.27 96.90 L 49.24 94.12 L 51.28 91.40 L 53.38 88.74 L 55.56 86.16 L 57.81 83.64 L 60.11 81.19 L 62.48 78.82 L 64.91 76.52 L 67.39 74.29 L 69.93 72.15 L 72.52 70.08 L 75.16 68.09 L 77.85 66.18 L 80.58 64.35 L 83.35 62.61 L 86.16 60.95 L 89.01 59.37 L 91.89 57.88 L 94.80 56.48 L 97.74 55.17 L 100.70 53.94 L 103.69 52.80 L 106.70 51.75 L 109.73 50.78 L 112.77 49.91 L 115.82 49.13 L 118.88 48.43 L 121.95 47.82 L 125.02 47.31 L 128.09 46.88 L 131.16 46.54 L 134.23 46.28 L 137.29 46.12 L 140.34 46.04 L 143.38 46.05 L 146.40 46.14 L 149.41 46.32 L 152.40 46.58 L 155.36 46.92 L 158.30 47.35 L 161.22 47.85 L 164.10 48.44 L 166.95 49.10 L 169.77 49.84 L 172.56 50.66 L 175.30 51.55 L 178.01 52.51 L 180.67 53.55 L 183.29 54.65 L 185.87 55.82 L 188.39 57.06 L 190.87 58.36 L 193.29 59.72 L 195.66 61.15 L 197.98 62.63 L 200.24 64.17 L 202.45 65.76 L 204.59 67.41 L 206.68 69.10 L 208.70 70.85 L 210.66 72.64 L 212.56 74.47 L 214.39 76.35 L 216.16 78.26 L 217.86 80.22 L 219.50 82.20 L 221.06 84.22 L 222.56 86.27 L 223.99 88.35 L 225.35 90.45 L 226.64 92.58 L 227.86 94.73 L 229.01 96.89 L 230.09 99.08 L 231.10 101.27 L 232.04 103.48 L 232.91 105.70 L 233.71 107.92 L 234.44 110.15 L 235.10 112.39 L 235.69 114.62 L 236.21 116.85 L 236.66 119.08 L 237.05 121.30 L 237.36 123.51 L 237.62 125.71 L 237.80 127.90 L 237.92 130.08 L 237.98 132.23 L 237.98 134.37 L 237.91 136.49 L 237.79 138.59 L 237.60 140.67 L 237.36 142.72 L 237.06 144.74 L 236.70 146.73 L 236.29 148.69 L 235.83 150.62 L 235.32 152.52 L 234.75 154.38 L 234.14 156.21 L 233.48 157.99 L 232.78 159.74 L 232.03 161.45 L 231.25 163.12 L 230.42 164.74 L 229.56 166.33 L 228.65 167.86 L 227.72 169.36 L 226.75 170.81 L 225.75 172.21 L 224.72 173.56 L 223.67 174.87 L 222.59 176.13 L 221.49 177.34 L 220.36 178.50 L 219.22 179.61 L 218.06 180.67 L 216.88 181.68 L 215.69 182.65 L 214.48 183.56 L 213.27 184.43 L 212.05 185.24 L 210.82 186.01 L 209.59 186.72 L 208.36 187.39 L 207.12 188.01 L 205.89 188.58 L 204.65 189.10 L 203.43 189.58 L 202.20 190.01 L 200.99 190.39 L 199.79 190.73 L 198.59 191.03 L 197.41 191.28 L 196.24 191.49 L 195.09 191.66 L 193.96 191.79 L 192.84 191.88 L 191.74 191.93 L 190.67 191.94 L 189.61 191.92 L 188.58 191.87 L 187.57 191.78 L 186.59 191.66 L 185.64 191.50 L 184.71 191.32 L 183.81 191.11 L 182.94 190.88 L 182.10 190.62 L 181.29 190.33 L 180.52 190.03 L 179.77 189.70 L 179.06 189.36 L 178.38 188.99 L 177.73 188.61 L 177.12 188.22 L 176.54 187.82 L 176.00 187.40 L 175.49 186.97 L 175.01 186.54 L 174.57 186.10 L 174.17 185.65 L 173.80 185.21 L 173.46 184.76 L 173.16 184.31 L 172.89 183.86 L 172.66 183.42 L 172.46 182.98 L 172.29 182.54 L 172.15 182.12 L 172.05 181.70 L 171.98 181.30 L 171.94 180.90 L 171.92 180.52 L 171.94 180.16 L 171.99 179.81 L 172.06 179.48 L 172.16 179.16 L 172.28 178.87 L 172.43 178.60 L 172.60 178.35 L 172.80 178.12 L 173.01 177.92 L 173.24 177.74 L 173.50 177.59 L 173.77 177.46 L 174.05 177.37 L 174.35 177.30 L 174.67 177.26 L 174.99 177.25 L 175.33 177.27 L 175.68 177.32 L 176.03 177.40 L 176.39 177.52 L 176.75 177.67 L 177.12 177.85 L 177.48 178.06 L 177.85 178.31 L 178.22 178.59 L 178.58 178.90 L 178.93 179.25 L 179.28 179.63 L 179.63 180.04 L 179.96 180.48 L 180.28 180.96 L 180.59 181.47 L 180.89 182.01 L 181.17 182.59 L 181.43 183.19 L 181.67 183.83 L 181.89 184.49 L 182.09 185.19 L 182.27 185.91 L 182.43 186.66 L 182.55 187.44 L 182.65 188.24 L 182.72 189.06 L 182.77 189.92 L 182.78 190.79 L 182.75 191.69 L 182.70 192.60 L 182.61 193.54 L 182.48 194.49 L 182.32 195.46 L 182.12 196.44 L 181.88 197.44 L 181.60 198.46 L 181.28 199.48 L 180.91 200.51 L 180.51 201.55 L 180.06 202.59 L 179.58 203.64 L 179.04 204.70 L 178.46 205.75 L 177.84 206.81 L 177.17 207.86 L 176.46 208.91 L 175.70 209.95 L 174.90 210.99 L 174.04 212.01 L 173.15 213.03 L 172.20 214.03 L 171.21 215.02 L 170.18 215.99 L 169.10 216.94 L 167.97 217.88 L 166.80 218.79 L 165.58 219.67 L 164.32 220.54 L 163.02 221.37 L 161.67 222.18 L 160.28 222.95 L 158.85 223.69 L 157.38 224.40 L 155.87 225.07 L 154.32 225.70 L 152.73 226.30 L 151.11 226.85 L 149.45 227.36 L 147.76 227.83 L 146.03 228.25 L 144.27 228.62 L 142.48 228.95 L 140.66 229.22 L 138.81 229.45 L 136.94 229.62 L 135.05 229.73 L 133.13 229.79 L 131.19 229.80 L 129.23 229.75 L 127.25 229.64 L 125.26 229.47 L 123.25 229.23 L 121.23 228.94 L 119.21 228.59 L 117.17 228.17 L 115.13 227.69 L 113.08 227.15 L 111.04 226.54 L 108.99 225.86 L 106.95 225.12 L 104.91 224.32 L 102.87 223.44 L 100.85 222.51 L 98.84 221.50 L 96.84 220.43 L 94.85 219.29 L 92.89 218.09 L 90.94 216.82 L 89.02 215.48 L 87.12 214.08 L 85.25 212.62 L 83.41 211.09 L 81.60 209.49 L 79.82 207.83 L 78.08 206.11 L 76.38 204.33 L 74.71 202.48 L 73.09 200.58 L 71.52 198.62 L 69.98 196.60 L 68.50 194.52 L 67.07 192.39 L 65.69 190.20 L 64.37 187.96 L 63.10 185.67 L 61.89 183.33 L 60.74 180.94 L 59.65 178.50 L 58.63 176.02 L 57.67 173.50 L 56.78 170.93 L 55.96 168.33 L 55.20 165.68 L 54.52 163.01 L 53.91 160.29 L 53.38 157.55 L 52.92 154.78 L 52.54 151.98 L 52.23 149.16 L 52.01 146.32 L 51.86 143.45 L 51.80 140.57 L 51.82 137.67 L 51.92 134.76 L 52.10 131.84 L 52.37 128.91 L 52.72 125.98 L 53.16 123.04 L 53.68 120.11 L 54.29 117.18 L 54.98 114.25 L 55.76 111.33 L 56.62 108.42 L 57.58 105.52 L 58.61 102.64 L 59.74 99.78 L 60.94 96.94 L 62.24 94.12 L 63.61 91.33 L 65.07 88.57 L 66.62 85.84 L 68.25 83.14 L 69.96 80.49 L 71.75 77.87 L 73.62 75.29 L 75.56 72.76 L 77.59 70.27 L 79.69 67.84 L 81.87 65.45 L 84.12 63.12 L 86.45 60.85 L 88.84 58.64 L 91.31 56.49 L 93.84 54.40 L 96.44 52.37 L 99.10 50.42 L 101.83 48.54 L 104.61 46.72 L 107.45 44.98 L 110.35 43.32 L 113.31 41.74 L 116.31 40.23 L 119.36 38.81 L 122.47 37.46 L 125.61 36.21 L 128.80 35.03 L 132.03 33.95 L 135.29 32.96 L 138.59 32.05 L 141.92 31.24 L 145.29 30.51 L 148.67 29.88 L 152.09 29.35 L 155.52 28.91 L 158.97 28.57 L 162.44 28.32 L 165.92 28.17 L 169.40 28.12 L 172.90 28.16 L 176.40 28.30 L 179.90 28.55 L 183.40 28.89 L 186.90 29.33 L 190.38 29.87 L 193.86 30.50 L 197.32 31.24 L 200.77 32.07 L 204.19 33.01 L 207.60 34.04 L 210.98 35.16 L 214.33 36.38 L 217.65 37.70 L 220.93 39.11 L 224.18 40.62 L 227.39 42.21 L 230.56 43.90 L 233.68 45.68 L 236.75 47.55 L 239.78 49.50 L 242.75 51.55 L 245.66 53.67 L 248.52 55.88 L 251.32 58.17 L 254.05 60.54 L 256.72 62.99 L 259.32 65.51 L 261.85 68.11 L 264.31 70.77 L 266.69 73.51 L 269.00 76.32 L 271.23 79.19 L 273.38 82.12 L 275.45 85.11 L 277.43 88.16 L 279.33 91.27 L 281.14 94.43 L 282.86 97.64 L 284.49 100.90 L 286.03 104.20 L 287.48 107.55 L 288.83 110.93 L 290.09 114.35 L 291.25 117.81 L 292.31 121.30 L 293.28 124.81 L 294.14 128.35 L 294.91 131.91 L 295.58 135.49 L 296.14 139.09 L 296.61 142.70 L 296.97 146.33 L 297.23 149.96 L 297.39 153.59 L 297.45 157.23 L 297.41 160.86 L 297.26 164.49 L 297.01 168.11 L 296.66 171.72 L 296.22 175.32 L 295.67 178.90 L 295.02 182.46 L 294.27 186.00 L 293.42 189.51 L 292.48 193.00 L 291.44 196.45 L 290.30 199.87 L 289.07 203.26 L 287.75 206.60 L 286.34 209.90 L 284.83 213.16 L 283.24 216.37 L 281.56 219.53 L 279.79 222.64 L 277.94 225.70 L 276.01 228.69 L 273.99 231.63 L 271.90 234.50 L 269.73 237.32 L 267.49 240.06 L 265.18 242.74 L 262.79 245.34 L 260.34 247.88 L 257.82 250.34 L 255.24 252.72 L 252.59 255.03 L 249.89 257.26 L 247.13 259.40 L 244.32 261.47 L 241.45 263.45 L 238.54 265.34 L 235.58 267.15 L 232.58 268.87 L 229.54 270.51 L 226.46 272.05 L 223.35 273.50 L 220.20 274.87 L 217.03 276.14 L 213.82 277.31 L 210.60 278.40 L 207.35 279.39 L 204.08 280.29 L 200.80 281.09 L 197.51 281.80 L 194.21 282.41 L 190.90 282.93 L 187.58 283.36 L 184.27 283.69 L 180.96 283.92 L 177.65 284.06 L 174.35 284.11 L 171.05 284.07 L 167.78 283.93 L 164.51 283.71 L 161.27 283.39 L 158.04 282.98 L 154.84 282.49 L 151.67 281.90 L 148.52 281.23 L 145.41 280.47 L 142.33 279.63 L 139.28 278.71 L 136.28 277.70 L 133.31 276.61 L 130.39 275.45 L 127.51 274.20 L 124.68 272.89 L 121.90 271.49 L 119.17 270.03 L 116.49 268.50 L 113.87 266.89 L 111.31 265.22 L 108.80 263.49 L 106.36 261.69 L 103.97 259.84 L 101.65 257.92 L 99.40 255.95 L 97.21 253.93 L 95.09 251.85 L 93.04 249.73 L 91.06 247.56 L 89.16 245.34 L 87.32 243.09 L 85.56 240.79 L 83.87 238.45 L 82.26 236.08 L 80.72 233.68 L 79.26 231.25 L 77.88 228.79 L 76.57 226.31 L 75.34 223.80 L 74.19 221.28 L 73.12 218.73 L 72.12 216.17 L 71.21 213.60 L 70.37 211.02 L 69.61 208.43 L 68.93 205.84 L 68.33 203.24 L 67.80 200.64 L 67.35 198.05 L 66.98 195.46 L 66.68 192.88 L 66.46 190.30 L 66.32 187.74 L 66.24 185.19 L 66.24 182.66 L 66.31 180.15 L 66.46 177.65 L 66.67 175.18 L 66.95 172.73 L 67.30 170.31 L 67.72 167.92 L 68.20 165.56 L 68.74 163.23 L 69.34 160.93 L 70.01 158.67 L 70.74 156.45 L 71.52 154.26 L 72.36 152.12 L 73.25 150.02 L 74.20 147.96 L 75.19 145.94 L 76.24 143.98 L 77.33 142.06 L 78.47 140.18 L 79.65 138.36 L 80.88 136.59 L 82.14 134.87 L 83.44 133.21 L 84.77 131.59 L 86.14 130.03 L 87.54 128.53 L 88.98 127.08 L 90.43 125.69 L 91.92 124.35 L 93.42 123.07 L 94.95 121.85 L 96.50 120.68 L 98.06 119.57 L 99.64 118.52 L 101.24 117.53 L 102.84 116.60 L 104.45 115.72 L 106.08 114.90 L 107.70 114.13 L 109.33 113.43 L 110.96 112.78 L 112.59 112.18 L 114.21 111.65 L 115.84 111.16 L 117.45 110.73 L 119.06 110.36 L 120.65 110.03 L 122.24 109.76 L 123.81 109.54 L 125.37 109.37 L 126.91 109.25 L 128.43 109.18 L 129.93 109.15 L 131.41 109.17 L 132.87 109.23 L 134.31 109.34 L 135.72 109.49 L 137.10 109.68 L 138.45 109.91 L 139.78 110.18 L 141.07 110.48 L 142.34 110.82 L 143.57 111.19 L 144.77 111.60 L 145.93 112.03 L 147.06 112.50 L 148.16 112.99 L 149.21 113.51 L 150.24 114.05 L 151.22 114.61 L 152.17 115.19 L 153.07 115.80 L 153.94 116.42 L 154.77 117.05 L 155.57 117.70 L 156.32 118.37 L 157.03 119.04 L 157.70 119.72 L 158.34 120.41 L 158.93 121.11 L 159.49 121.80 L 160.01 122.50 L 160.48 123.21 L 160.92 123.91 L 161.33 124.60 L 161.69 125.30 L 162.02 125.99 L 162.31 126.67 L 162.57 127.34 L 162.79 128.00 L 162.98 128.65 L 163.13 129.29 L 163.25 129.91 L 163.34 130.52 L 163.40 131.11 L 163.43 131.68 L 163.44 132.24 L 163.41 132.77 L 163.36 133.28 L 163.28 133.77 L 163.18 134.24 L 163.06 134.68 L 162.91 135.09 L 162.75 135.48 L 162.56 135.84 L 162.36 136.18 L 162.14 136.48 L 161.91 136.76 L 161.67 137.00 L 161.41 137.22 L 161.15 137.41 L 160.87 137.56 L 160.59 137.68 L 160.30 137.78 L 160.01 137.84 L 159.72 137.86 L 159.42 137.86 L 159.13 137.83 L 158.84 137.76 L 158.55 137.66 L 158.27 137.53 L 157.99 137.37 L 157.73 137.17 L 157.47 136.95 L 157.22 136.69 L 156.99 136.41 L 156.77 136.10 L 156.57 135.75 L 156.38 135.38 L 156.21 134.99 L 156.07 134.56 L 155.94 134.11 L 155.84 133.64 L 155.75 133.14 L 155.70 132.62 L 155.67 132.08 L 155.67 131.51 L 155.70 130.93 L 155.75 130.33 L 155.84 129.71 L 155.96 129.07 L 156.11 128.42 L 156.29 127.76 L 156.51 127.09 L 156.76 126.40 L 157.05 125.71 L 157.38 125.00 L 157.74 124.30 L 158.14 123.58 L 158.58 122.87 L 159.05 122.15 L 159.57 121.43 L 160.12 120.72 L 160.71 120.01 L 161.35 119.30 L 162.02 118.60 L 162.73 117.91 L 163.48 117.23 L 164.27 116.56 L 165.10 115.91 L 165.97 115.27 L 166.88 114.65 L 167.83 114.04 L 168.81 113.46 L 169.84 112.90 L 170.90 112.36 L 172.00 111.85 L 173.13 111.36 L 174.30 110.90 L 175.50 110.48 L 176.74 110.08 L 178.01 109.72 L 179.31 109.39 L 180.64 109.10 L 182.00 108.85 L 183.39 108.64 L 184.81 108.47 L 186.25 108.33 L 187.72 108.25 L 189.21 108.20 L 190.72 108.21 L 192.26 108.26 L 193.81 108.35 L 195.38 108.50 L 196.97 108.70 L 198.57 108.94 L 200.18 109.24 L 201.80 109.59 L 203.44 110.00 L 205.08 110.46 L 206.72 110.98 L 208.37 111.55 L 210.02 112.17 L 211.67 112.86 L 213.32 113.60 L 214.96 114.39 L 216.60 115.25 L 218.23 116.16 L 219.84 117.14 L 221.45 118.16 L 223.04 119.25 L 224.62 120.40 L 226.17 121.60 L 227.71 122.86 L 229.22 124.18 L 230.71 125.56 L 232.17 126.99 L 233.61 128.48 L 235.01 130.02 L 236.38 131.62 L 237.71 133.27 L 239.01 134.98 L 240.27 136.74 L 241.48 138.55 L 242.66 140.41 L 243.79 142.32 L 244.87 144.28 L 245.91 146.28 L 246.89 148.33 L 247.82 150.43 L 248.70 152.56 L 249.53 154.74 L 250.29 156.96 L 251.00 159.22 L 251.65 161.52 L 252.23 163.85 L 252.75 166.21 L 253.21 168.60 L 253.60 171.03 L 253.93 173.48 L 254.18 175.96 L 254.37 178.46 L 254.48 180.98 L 254.52 183.52 L 254.50 186.08 L 254.39 188.65 L 254.21 191.24 L 253.96 193.83 L 253.63 196.44 L 253.23 199.05 L 252.74 201.66 L 252.18 204.27 L 251.54 206.89 L 250.83 209.50 L 250.03 212.10 L 249.16 214.69 L 248.20 217.28 L 247.17 219.85 L 246.06 222.40 L 244.87 224.93 L 243.60 227.45 L 242.26 229.94 L 240.83 232.40 L 239.33 234.83 L 237.76 237.24 L 236.11 239.61 L 234.38 241.94 L 232.58 244.23 L 230.70 246.49 L 228.76 248.70 L 226.74 250.86 L 224.65 252.98 L 222.49 255.04 L 220.27 257.06 L 217.98 259.01 L 215.62 260.92 L 213.20 262.76 L 210.72 264.54 L 208.18 266.25 L 205.58 267.90 L 202.92 269.49 L 200.21 271.00 L 197.45 272.44 L 194.64 273.81 L 191.78 275.11 L 188.87 276.33 L 185.92 277.47 L 182.92 278.53 L 179.89 279.51 L 176.82 280.40 L 173.71 281.21 L 170.57 281.94 L 167.40 282.58 L 164.20 283.13 L 160.98 283.60 L 157.74 283.97 L 154.47 284.26 L 151.19 284.45 L 147.90 284.55 L 144.59 284.56 L 141.28 284.47 L 137.95 284.29 L 134.63 284.02 L 131.30 283.65 L 127.98 283.19 L 124.66 282.63 L 121.35 281.98 L 118.05 281.23 L 114.77 280.39 L 111.50 279.45 L 108.25 278.42 L 105.03 277.30 L 101.82 276.08 L 98.65 274.77 L 95.51 273.37 L 92.40 271.88 L 89.33 270.30 L 86.29 268.62 L 83.30 266.86 L 80.35 265.02 L 77.45 263.08 L 74.60 261.07 L 71.80 258.97 L 69.06 256.78 L 66.38 254.52 L 63.75 252.18 L 61.19 249.76 L 58.69 247.27 L 56.25 244.70 L 53.89 242.06 L 51.60 239.35 L 49.38 236.58 L 47.24 233.74 L 45.17 230.83 L 43.19 227.87 L 41.28 224.84 L 39.46 221.76 L 37.73 218.63 L 36.08 215.45 L 34.52 212.21 L 33.04 208.93 L 31.66 205.61 L 30.37 202.25 L 29.18 198.84 L 28.08 195.41 L 27.08 191.94 L 26.17 188.44 L 25.36 184.91 L 24.65 181.36 L 24.04 177.79 L 23.52 174.20 L 23.11 170.59 L 22.80 166.97 L 22.59 163.35 L 22.49 159.71 L 22.48 156.08 L 22.58 152.44 L 22.78 148.80 L 23.08 145.18 L 23.48 141.56 L 23.99 137.95 L 24.59 134.36 L 25.30 130.78 L 26.10 127.23 L 27.01 123.69 L 28.01 120.19 L 29.11 116.71 L 30.31 113.27 L 31.60 109.86 L 32.99 106.50 L 34.47 103.17 L 36.05 99.88 L 37.71 96.64 L 39.47 93.45 L 41.31 90.31 L 43.24 87.23 L 45.26 84.20 L 47.35 81.23 L 49.53 78.33 L 51.79 75.48 L 54.13 72.70 L 56.54 70.00 L 59.02 67.36 L 61.58 64.79 L 64.20 62.30 L 66.89 59.88 L 69.65 57.55 L 72.47 55.29 L 75.34 53.11 L 78.28 51.02 L 81.27 49.02 L 84.30 47.10 L 87.39 45.27 L 90.53 43.52 L 93.71 41.87 L 96.93 40.31 L 100.19 38.85 L 103.48 37.47 L 106.81 36.19 L 110.16 35.01 L 113.55 33.92 L 116.95 32.93 L 120.38 32.04 L 123.83 31.25 L 127.29 30.55 L 130.77 29.95 L 134.25 29.45 L 137.74 29.05 L 141.23 28.75 L 144.73 28.54 L 148.22 28.44 L 151.70 28.43 L 155.18 28.52 L 158.65 28.71 L 162.10 28.99 L 165.54 29.37 L 168.95 29.85 L 172.35 30.42 L 175.72 31.08 L 179.06 31.84 L 182.37 32.68 L 185.65 33.62 L 188.89 34.65 L 192.09 35.76 L 195.25 36.97 L 198.37 38.25 L 201.45 39.62 L 204.47 41.07 L 207.45 42.61 L 210.37 44.22 L 213.24 45.90 L 216.05 47.66 L 218.80 49.50 L 221.49 51.41 L 224.12 53.38 L 226.69 55.42 L 229.18 57.53 L 231.61 59.69 L 233.97 61.92 L 236.26 64.21 L 238.47 66.55 L 240.62 68.95 L 242.68 71.39 L 244.67 73.89 L 246.58 76.43 L 248.41 79.01 L 250.16 81.63 L 251.83 84.29 L 253.42 86.99 L 254.92 89.72 L 256.35 92.48 L 257.68 95.27 L 258.94 98.08 L 260.11 100.92 L 261.19 103.78 L 262.19 106.65 L 263.10 109.54 L 263.93 112.44 L 264.67 115.35 L 265.33 118.26 L 265.90 121.18 L 266.38 124.10 L 266.79 127.02 L 267.10 129.94 L 267.33 132.85 L 267.48 135.75 L 267.55 138.64 L 267.54 141.51 L 267.44 144.37 L 267.27 147.21 L 267.01 150.03 L 266.68 152.83 L 266.27 155.60 L 265.78 158.34 L 265.22 161.05 L 264.59 163.73 L 263.88 166.38 L 263.10 168.99 L 262.26 171.56 L 261.35 174.10 L 260.37 176.59 L 259.33 179.03 L 258.22 181.43 L 257.05 183.79 L 255.83 186.09 L 254.55 188.35 L 253.21 190.55 L 251.82 192.70 L 250.38 194.79 L 248.89 196.83 L 247.35 198.82 L 245.77 200.74 L 244.14 202.61 L 242.47 204.41 L 240.77 206.15 L 239.03 207.84 L 237.25 209.46 L 235.44 211.01 L 233.60 212.50 L 231.74 213.93 L 229.84 215.29 L 227.93 216.59 L 225.99 217.82 L 224.03 218.99 L 222.06 220.09 L 220.08 221.12 L 218.08 222.09 L 216.07 222.99 L 214.05 223.83 L 212.03 224.60 L 210.00 225.30 L 207.98 225.94 L 205.95 226.52 L 203.93 227.03 L 201.91 227.48 L 199.90 227.87 L 197.89 228.19 L 195.90 228.45 L 193.92 228.66 L 191.96 228.80 L 190.01 228.88 L 188.08 228.91 L 186.17 228.88 L 184.28 228.80 L 182.42 228.66 L 180.58 228.47 L 178.77 228.22 L 176.98 227.93 L 175.23 227.59 L 173.50 227.20 L 171.81 226.76 L 170.16 226.28 L 168.53 225.76 L 166.95 225.19 L 165.40 224.59 L 163.88 223.95 L 162.41 223.27 L 160.98 222.55 L 159.59 221.81 L 158.24 221.03 L 156.93 220.22 L 155.67 219.38 L 154.45 218.52 L 153.27 217.64 L 152.14 216.73 L 151.05 215.80 L 150.01 214.85 L 149.01 213.89 L 148.06 212.91 L 147.15 211.92 L 146.29 210.91 L 145.48 209.90 L 144.71 208.88 L 143.99 207.85 L 143.31 206.81 L 142.68 205.78 L 142.09 204.74 L 141.55 203.71 L 141.05 202.68 L 140.59 201.65 L 140.17 200.62 L 139.80 199.61 L 139.47 198.60 L 139.18 197.60 L 138.93 196.62 L 138.72 195.65 L 138.54 194.69 L 138.40 193.75 L 138.30 192.83 L 138.24 191.93 L 138.20 191.04 L 138.20 190.18 L 138.23 189.34 L 138.29 188.52 L 138.38 187.73 L 138.50 186.96 L 138.64 186.22 L 138.81 185.51 L 139.00 184.82 L 139.21 184.17 L 139.44 183.54 L 139.70 182.94 L 139.97 182.38 L 140.25 181.84 L 140.55 181.34 L 140.87 180.87 L 141.19 180.43 L 141.52 180.02 L 141.87 179.65 L 142.22 179.31 L 142.57 179.00 L 142.93 178.73 L 143.29 178.49 L 143.65 178.28 L 144.01 178.10 L 144.36 177.96 L 144.72 177.85 L 145.06 177.77 L 145.40 177.73 L 145.73 177.71 L 146.05 177.73 L 146.36 177.77 L 146.66 177.85 L 146.94 177.95 L 147.20 178.08 L 147.45 178.24 L 147.68 178.42 L 147.89 178.63 L 148.08 178.86 L 148.25 179.12 L 148.40 179.40 L 148.52 179.70 L 148.61 180.02 L 148.68 180.36 L 148.72 180.72 L 148.74 181.09 L 148.72 181.48 L 148.68 181.88 L 148.60 182.29 L 148.50 182.72 L 148.36 183.15 L 148.19 183.59 L 147.98 184.04 L 147.75 184.50 L 147.48 184.95 L 147.17 185.41 L 146.83 185.87 L 146.46 186.33 L 146.05 186.79 L 145.60 187.24 L 145.12 187.68 L 144.61 188.12 L 144.06 188.55 L 143.48 188.97 L 142.86 189.37 L 142.21 189.76 L 141.53 190.14 L 140.81 190.50 L 140.05 190.84 L 139.27 191.16 L 138.45 191.46 L 137.61 191.73 L 136.73 191.98 L 135.82 192.21 L 134.89 192.40 L 133.92 192.57 L 132.93 192.71 L 131.92 192.81 L 130.87 192.88 L 129.81 192.92 L 128.72 192.92 L 127.61 192.88 L 126.48 192.81 L 125.33 192.70 L 124.17 192.54 L 122.99 192.35 L 121.79 192.11 L 120.58 191.83 L 119.36 191.51 L 118.13 191.14 L 116.89 190.72 L 115.65 190.26 L 114.40 189.75 L 113.14 189.20 L 111.89 188.59 L 110.63 187.94 L 109.38 187.24 L 108.13 186.49 L 106.89 185.69 L 105.65 184.83 L 104.43 183.93 L 103.21 182.98 L 102.01 181.98 L 100.82 180.93 L 99.65 179.83 L 98.50 178.68 L 97.37 177.48 L 96.26 176.23 L 95.18 174.93 L 94.13 173.59 L 93.10 172.19 L 92.10 170.75 L 91.13 169.27 L 90.20 167.73 L 89.31 166.16 L 88.45 164.54 L 87.63 162.87 L 86.85 161.17 L 86.11 159.42 L 85.42 157.63 L 84.78 155.81 L 84.18 153.95 L 83.63 152.05 L 83.14 150.12 L 82.69 148.15 L 82.30 146.16 L 81.96 144.13 L 81.69 142.08 L 81.46 139.99 L 81.30 137.89 L 81.20 135.76 L 81.16 133.61 L 81.18 131.44 L 81.27 129.25 L 81.42 127.05 L 81.63 124.84 L 81.92 122.61 L 82.27 120.37 L 82.68 118.13 L 83.17 115.88 L 83.72 113.63 L 84.35 111.38 L 85.04 109.13 L 85.80 106.88 L 86.64 104.64 L 87.54 102.41 L 88.52 100.18 L 89.57 97.98 L 90.68 95.78 L 91.87 93.61 L 93.13 91.45 L 94.46 89.32 L 95.86 87.21 L 97.33 85.13 L 98.86 83.07 L 100.47 81.05 L 102.14 79.06 L 103.88 77.11 L 105.69 75.20 L 107.56 73.33 L 109.50 71.50 L 111.50 69.72 L 113.56 67.98 L 115.69 66.29 L 117.87 64.66 L 120.11 63.07 L 122.41 61.55 L 124.76 60.08 L 127.17 58.67 L 129.63 57.32 L 132.14 56.04 L 134.70 54.82 L 137.31 53.67 L 139.96 52.59 L 142.66 51.58 L 145.40 50.64 L 148.17 49.77 L 150.99 48.98 L 153.83 48.26 L 156.72 47.63 L 159.63 47.07 L 162.57 46.59 L 165.53 46.20 L 168.52 45.88 L 171.53 45.65 L 174.56 45.51 L 177.61 45.45 L 180.66 45.48 L 183.73 45.59 L 186.81 45.79 L 189.89 46.08 L 192.98 46.46 L 196.07 46.92 L 199.15 47.48 L 202.23 48.12 L 205.30 48.86 L 208.36 49.68 L 211.41 50.59 L 214.44 51.59 L 217.45 52.68 L 220.44 53.86 L 223.41 55.13 L 226.35 56.48 L 229.26 57.92 L 232.14 59.45 L 234.99 61.07 L 237.79 62.77 L 240.56 64.55 L 243.28 66.41 L 245.96 68.36 L 248.59 70.39 L 251.17 72.49 L 253.69 74.68 L 256.16 76.94 L 258.57 79.28 L 260.93 81.69 L 263.22 84.17 L 265.44 86.72 L 267.60 89.34 L 269.69 92.03 L 271.71 94.78 L 273.65 97.59 L 275.52 100.47 L 277.31 103.40 L 279.02 106.39 L 280.65 109.43 L 282.20 112.52 L 283.67 115.66 L 285.04 118.85 L 286.34 122.08 L 287.54 125.36 L 288.65 128.67 L 289.67 132.02 L 290.60 135.40 L 291.43 138.82 L 292.17 142.26 L 292.82 145.73 L 293.36 149.22 L 293.81 152.73 L 294.16 156.26 L 294.42 159.80 L 294.57 163.35 L 294.62 166.91 L 294.58 170.47 L 294.43 174.04 L 294.19 177.61 L 293.84 181.17 L 293.39 184.72 L 292.85 188.27 L 292.20 191.80 L 291.45 195.32 L 290.61 198.82 L 289.66 202.30 L 288.62 205.75 L 287.48 209.18 L 286.24 212.57 L 284.91 215.94 L 283.48 219.26 L 281.96 222.55 L 280.35 225.80 L 278.64 229.00 L 276.84 232.15 L 274.96 235.26 L 272.99 238.31 L 270.93 241.31 L 268.79 244.25 L 266.56 247.13 L 264.26 249.94 L 261.88 252.70 L 259.42 255.38 L 256.88 258.00 L 254.27 260.54 L 251.59 263.01 L 248.84 265.41 L 246.03 267.73 L 243.15 269.96 L 240.21 272.12 L 237.22 274.19 L 234.16 276.18 L 231.05 278.08 L 227.89 279.89 L 224.68 281.62 L 221.43 283.25 L 218.13 284.79 L 214.79 286.24 L 211.41 287.59 L 208.00 288.84 L 204.55 290.00 L 201.08 291.07 L 197.58 292.03 L 194.06 292.89 L 190.51 293.66 L 186.95 294.32 L 183.37 294.89 L 179.79 295.35 L 176.19 295.71 L 172.59 295.97 L 168.98 296.13 L 165.38 296.19 L 161.78 296.15 L 158.18 296.01 L 154.60 295.76 L 151.02 295.42 L 147.47 294.98 L 143.93 294.44 L 140.41 293.80 L 136.91 293.06 L 133.44 292.22 L 130.01 291.29 L 126.60 290.27 L 123.23 289.15 L 119.90 287.94 L 116.60 286.64 L 113.35 285.25 L 110.15 283.77 L 106.99 282.21 L 103.89 280.56 L 100.84 278.82 L 97.84 277.01 L 94.90 275.11 L 92.02 273.14 L 89.20 271.09 L 86.45 268.97 L 83.76 266.77 L 81.15 264.51 L 78.60 262.18 L 76.12 259.78 L 73.72 257.32 L 71.39 254.80 L 69.14 252.22 L 66.97 249.58 L 64.88 246.89 L 62.87 244.15 L 60.94 241.37 L 59.10 238.53 L 57.34 235.66 L 55.67 232.74 L 54.09 229.79 L 52.59 226.80 L 51.18 223.78 L 49.86 220.73 L 48.63 217.65 L 47.50 214.55 L 46.45 211.42 L 45.49 208.28 L 44.63 205.13 L 43.85 201.96 L 43.17 198.78 L 42.58 195.59 L 42.09 192.40 L 41.68 189.20 L 41.36 186.01 L 41.14 182.82 L 41.01 179.64 L 40.96 176.47 L 41.01 173.31 L 41.14 170.16 L 41.36 167.03 L 41.67 163.92 L 42.07 160.83 L 42.55 157.77 L 43.11 154.73 L 43.76 151.72 L 44.49 148.75 L 45.30 145.81 L 46.18 142.90 L 47.15 140.04 L 48.19 137.21 L 49.31 134.43 L 50.49 131.70 L 51.75 129.01 L 53.08 126.37 L 54.48 123.78 L 55.94 121.24 L 57.47 118.76 L 59.05 116.34 L 60.70 113.97 L 62.41 111.66 L 64.17 109.41 L 65.98 107.23 L 67.85 105.11 L 69.76 103.05 L 71.73 101.06 L 73.73 99.13 L 75.78 97.28 L 77.87 95.49 L 80.00 93.78 L 82.16 92.13 L 84.35 90.56 L 86.58 89.05 L 88.83 87.62 L 91.12 86.27 L 93.42 84.98 L 95.74 83.77 L 98.09 82.64 L 100.45 81.58 L 102.82 80.59 L 105.20 79.68 L 107.60 78.84 L 110.00 78.07 L 112.40 77.38 L 114.81 76.77 L 117.22 76.22 L 119.62 75.75 L 122.02 75.35 L 124.42 75.02 L 126.80 74.76 L 129.17 74.57 L 131.53 74.46 L 133.87 74.41 L 136.20 74.42 L 138.50 74.51 L 140.78 74.65 L 143.04 74.87 L 145.28 75.14 L 147.49 75.48 L 149.66 75.88 L 151.81 76.33 L 153.92 76.85 L 156.00 77.42 L 158.05 78.04 L 160.06 78.72 L 162.03 79.45 L 163.95 80.22 L 165.84 81.05 L 167.69 81.92 L 169.49 82.84 L 171.24 83.80 L 172.96 84.80 L 174.62 85.84 L 176.23 86.92 L 177.80 88.03 L 179.32 89.18 L 180.79 90.36 L 182.20 91.56 L 183.57 92.80 L 184.88 94.06 L 186.14 95.35 L 187.35 96.65 L 188.51 97.98 L 189.61 99.32 L 190.66 100.68 L 191.66 102.06 L 192.60 103.44 L 193.49 104.84 L 194.32 106.25 L 195.11 107.66 L 195.84 109.07 L 196.52 110.49 L 197.14 111.91 L 197.72 113.32 L 198.24 114.74 L 198.71 116.15 L 199.14 117.55 L 199.51 118.94 L 199.84 120.32 L 200.12 121.70 L 200.35 123.06 L 200.54 124.40 L 200.68 125.73 L 200.78 127.04 L 200.84 128.33 L 200.85 129.60 L 200.83 130.85 L 200.77 132.07 L 200.66 133.27 L 200.53 134.45 L 200.35 135.60 L 200.15 136.72 L 199.91 137.81 L 199.64 138.87 L 199.34 139.90 L 199.02 140.90 L 198.66 141.87 L 198.29 142.80 L 197.89 143.70 L 197.46 144.57 L 197.02 145.40 L 196.56 146.20 L 196.09 146.96 L 195.59 147.68 L 195.09 148.37 L 194.57 149.03 L 194.04 149.64 L 193.51 150.22 L 192.96 150.76 L 192.42 151.27 L 191.86 151.74 L 191.31 152.17 L 190.75 152.57 L 190.20 152.93 L 189.65 153.25 L 189.10 153.55 L 188.56 153.80 L 188.03 154.02 L 187.50 154.21 L 186.99 154.37 L 186.48 154.49 L 185.99 154.59 L 185.52 154.65 L 185.06 154.68 L 184.61 154.68 L 184.19 154.66 L 183.78 154.61 L 183.39 154.53 L 183.03 154.43 L 182.69 154.31 L 182.37 154.16 L 182.08 154.00 L 181.81 153.81 L 181.56 153.60 L 181.35 153.38 L 181.16 153.14 L 181.00 152.89 L 180.88 152.63 L 180.78 152.35 L 180.71 152.06 L 180.67 151.77 L 180.66 151.46 L 180.69 151.15 L 180.74 150.84 L 180.83 150.53 L 180.95 150.21 L 181.11 149.89 L 181.29 149.58 L 181.51 149.27 L 181.76 148.97 L 182.04 148.67 L 182.36 148.38 L 182.70 148.10 L 183.08 147.83 L 183.49 147.58 L 183.92 147.33 L 184.39 147.11 L 184.89 146.90 L 185.41 146.71 L 185.97 146.54 L 186.55 146.40 L 187.16 146.27 L 187.79 146.17 L 188.45 146.10 L 189.13 146.05 L 189.83 146.03 L 190.56 146.04 L 191.30 146.08 L 192.07 146.16 L 192.85 146.26 L 193.65 146.40 L 194.47 146.57 L 195.30 146.78 L 196.14 147.03 L 196.99 147.31 L 197.86 147.63 L 198.73 147.99 L 199.60 148.39 L 200.49 148.83 L 201.37 149.31 L 202.26 149.83 L 203.15 150.40 L 204.04 151.00 L 204.92 151.65 L 205.80 152.34 L 206.68 153.07 L 207.54 153.85 L 208.40 154.67 L 209.24 155.53 L 210.07 156.43 L 210.89 157.38 L 211.68 158.37 L 212.46 159.40 L 213.22 160.47 L 213.96 161.59 L 214.67 162.75 L 215.36 163.94 L 216.02 165.18 L 216.65 166.45 L 217.25 167.77 L 217.81 169.12 L 218.35 170.51 L 218.84 171.93 L 219.30 173.39 L 219.72 174.88 L 220.10 176.41 L 220.44 177.97 L 220.74 179.55 L 220.99 181.17 L 221.19 182.81 L 221.35 184.48 L 221.46 186.18 L 221.52 187.89 L 221.52 189.63 L 221.48 191.39 L 221.38 193.17 L 221.22 194.97 L 221.02 196.78 L 220.75 198.60 L 220.43 200.43 L 220.05 202.28 L 219.61 204.13 L 219.11 205.99 L 218.55 207.85 L 217.93 209.71 L 217.25 211.57 L 216.51 213.43 L 215.70 215.29 L 214.84 217.13 L 213.91 218.97 L 212.92 220.80 L 211.86 222.62 L 210.75 224.42 L 209.57 226.21 L 208.33 227.97 L 207.03 229.72 L 205.66 231.44 L 204.24 233.13 L 202.75 234.80 L 201.20 236.43 L 199.60 238.04 L 197.93 239.61 L 196.21 241.14 L 194.42 242.64 L 192.59 244.09 L 190.69 245.50 L 188.74 246.87 L 186.74 248.19 L 184.69 249.46 L 182.58 250.68 L 180.43 251.85 L 178.23 252.96 L 175.98 254.02 L 173.68 255.02 L 171.35 255.96 L 168.97 256.84 L 166.54 257.66 L 164.09 258.41 L 161.59 259.10 L 159.06 259.72 L 156.50 260.26 L 153.90 260.74 L 151.28 261.15 L 148.63 261.49 L 145.96 261.75 L 143.26 261.93 L 140.55 262.04 L 137.81 262.07 L 135.06 262.03 L 132.30 261.90 L 129.53 261.70 L 126.75 261.42 L 123.96 261.05 L 121.17 260.60 L 118.38 260.08 L 115.59 259.47 L 112.80 258.77 L 110.03 258.00 L 107.26 257.14 L 104.50 256.20 L 101.75 255.18 L 99.03 254.07 L 96.32 252.88 L 93.64 251.61 L 90.98 250.26 L 88.34 248.83 L 85.74 247.31 L 83.17 245.72 L 80.64 244.05 L 78.14 242.30 L 75.68 240.47 L 73.27 238.56 L 70.90 236.58 L 68.57 234.53 L 66.30 232.40 L 64.08 230.20 L 61.92 227.93 L 59.81 225.59 L 57.76 223.18 L 55.77 220.70 L 53.84 218.17 L 51.98 215.57 L 50.19 212.90 L 48.47 210.18 L 46.82 207.41 L 45.24 204.57 L 43.74 201.69 L 42.32 198.75 L 40.97 195.77 L 39.71 192.74 L 38.52 189.66 L 37.43 186.55 L 36.41 183.39 L 35.48 180.20 L 34.64 176.97 L 33.89 173.72 L 33.23 170.43 L 32.66 167.12 L 32.18 163.78 L 31.80 160.42 L 31.51 157.04 L 31.31 153.65 L 31.21 150.25 L 31.20 146.83 L 31.29 143.41 L 31.48 139.98 L 31.76 136.56 L 32.14 133.13 L 32.62 129.71 L 33.20 126.30 L 33.87 122.89 L 34.64 119.50 L 35.50 116.13 L 36.47 112.77 L 37.52 109.44 L 38.68 106.13 L 39.92 102.85 L 41.26 99.60 L 42.70 96.38 L 44.23 93.20 L 45.85 90.06 L 47.55 86.95 L 49.35 83.90 L 51.24 80.89 L 53.21 77.93 L 55.27 75.02 L 57.41 72.17 L 59.63 69.37 L 61.94 66.64 L 64.32 63.96 L 66.78 61.35 L 69.31 58.81 L 71.92 56.34 L 74.60 53.94 L 77.35 51.61 L 80.17 49.36 L 83.05 47.19 L 85.99 45.09 L 88.99 43.08 L 92.05 41.15 L 95.17 39.31 L 98.34 37.55 L 101.56 35.88 L 104.82 34.30 L 108.13 32.81 L 111.49 31.42 L 114.88 30.12 L 118.31 28.91 L 121.78 27.80 L 125.27 26.79 L 128.80 25.87 L 132.34 25.05 L 135.92 24.34 L 139.51 23.72 L 143.11 23.21 L 146.74 22.79 L 150.37 22.48 L 154.01 22.27 L 157.65 22.16 L 161.30 22.15 L 164.94 22.25 L 168.58 22.44 L 172.21 22.74 L 175.83 23.14 L 179.44 23.64 L 183.03 24.25 L 186.60 24.95 L 190.15 25.75 L 193.67 26.65 L 197.17 27.65 L 200.63 28.75 L 204.07 29.94 L 207.46 31.23 L 210.81 32.61 L 214.13 34.08 L 217.39 35.64 L 220.61 37.30 L 223.78 39.04 L 226.90 40.87 L 229.96 42.78 L 232.96 44.78 L 235.91 46.86 L 238.79 49.01 L 241.61 51.25 L 244.36 53.56 L 247.04 55.94 L 249.65 58.40 L 252.19 60.92 L 254.65 63.52 L 257.03 66.17 L 259.34 68.89 L 261.57 71.67 L 263.71 74.50 L 265.77 77.39 L 267.75 80.33 L 269.64 83.33 L 271.44 86.36 L 273.15 89.45 L 274.78 92.57 L 276.31 95.73 L 277.75 98.93 L 279.10 102.16 L 280.35 105.42 L 281.51 108.71 L 282.58 112.03 L 283.55 115.36 L 284.42 118.72 L 285.20 122.09 L 285.88 125.47 L 286.46 128.86 L 286.95 132.27 L 287.34 135.67 L 287.64 139.08 L 287.83 142.48 L 287.94 145.88 L 287.94 149.28 L 287.85 152.66 L 287.67 156.03 L 287.39 159.39 L 287.02 162.73 L 286.56 166.04 L 286.01 169.34 L 285.36 172.60 L 284.63 175.84 L 283.80 179.05 L 282.90 182.22 L 281.90 185.36 L 280.82 188.45 L 279.66 191.51 L 278.41 194.52 L 277.09 197.49 L 275.68 200.40 L 274.21 203.27 L 272.65 206.08 L 271.02 208.84 L 269.33 211.55 L 267.56 214.19 L 265.73 216.78 L 263.83 219.30 L 261.86 221.76 L 259.84 224.15 L 257.76 226.47 L 255.62 228.73 L 253.43 230.92 L 251.19 233.03 L 248.89 235.08 L 246.55 237.04 L 244.17 238.94 L 241.74 240.76 L 239.28 242.50 L 236.78 244.16 L 234.24 245.74 L 231.67 247.25 L 229.07 248.68 L 226.44 250.02 L 223.79 251.28 L 221.12 252.47 L 218.43 253.57 L 215.72 254.59 L 213.00 255.53 L 210.27 256.38 L 207.52 257.16 L 204.78 257.85 L 202.02 258.46 L 199.27 258.99 L 196.52 259.44 L 193.77 259.81 L 191.02 260.09 L 188.29 260.30 L 185.56 260.43 L 182.85 260.49 L 180.16 260.46 L 177.48 260.36 L 174.82 260.19 L 172.19 259.94 L 169.58 259.61 L 166.99 259.22 L 164.44 258.75 L 161.91 258.22 L 159.42 257.62 L 156.96 256.95 L 154.54 256.21 L 152.16 255.42 L 149.81 254.56 L 147.51 253.64 L 145.25 252.66 L 143.04 251.63 L 140.87 250.53 L 138.75 249.39 L 136.68 248.20 L 134.66 246.95 L 132.70 245.66 L 130.78 244.32 L 128.92 242.94 L 127.11 241.52 L 125.36 240.05 L 123.67 238.55 L 122.03 237.02 L 120.46 235.45 L 118.94 233.85 L 117.48 232.22 L 116.08 230.56 L 114.74 228.88 L 113.46 227.17 L 112.25 225.45 L 111.09 223.70 L 110.00 221.94 L 108.97 220.17 L 108.00 218.38 L 107.09 216.58 L 106.24 214.78 L 105.45 212.97 L 104.73 211.15 L 104.06 209.34 L 103.46 207.52 L 102.91 205.71 L 102.42 203.90 L 101.99 202.09 L 101.62 200.30 L 101.31 198.51 L 101.05 196.74 L 100.85 194.98 L 100.70 193.23 L 100.60 191.50 L 100.56 189.79 L 100.57 188.10 L 100.63 186.44 L 100.73 184.79 L 100.89 183.17 L 101.09 181.58 L 101.33 180.01 L 101.62 178.48 L 101.95 176.97 L 102.32 175.50 L 102.73 174.05 L 103.18 172.65 L 103.66 171.27 L 104.18 169.93 L 104.73 168.63 L 105.31 167.37 L 105.93 166.14 L 106.56 164.95 L 107.23 163.80 L 107.92 162.70 L 108.63 161.63 L 109.37 160.60 L 110.12 159.62 L 110.89 158.67 L 111.68 157.77 L 112.48 156.91 L 113.29 156.09 L 114.11 155.32 L 114.94 154.58 L 115.78 153.89 L 116.63 153.24 L 117.47 152.63 L 118.32 152.07 L 119.17 151.54 L 120.02 151.06 L 120.87 150.61 L 121.71 150.21 L 122.54 149.84 L 123.37 149.51 L 124.19 149.22 L 125.00 148.97 L 125.79 148.75 L 126.57 148.57 L 127.34 148.43 L 128.09 148.31 L 128.83 148.23 L 129.54 148.18 L 130.24 148.17 L 130.91 148.18 L 131.56 148.22 L 132.19 148.28 L 132.79 148.37 L 133.37 148.49 L 133.93 148.62 L 134.45 148.78 L 134.95 148.96 L 135.42 149.16 L 135.87 149.38 L 136.28 149.61 L 136.66 149.86 L 137.01 150.12 L 137.33 150.39 L 137.62 150.67 L 137.88 150.96 L 138.11 151.25 L 138.30 151.56 L 138.46 151.86 L 138.59 152.17 L 138.69 152.48 L 138.76 152.78 L 138.79 153.09 L 138.79 153.39 L 138.76 153.69 L 138.70 153.97 L 138.61 154.25 L 138.49 154.52" stroke="#574a35" fill="none" stroke-width="1.25" stroke-linejoin="round" stroke-linecap="round"/><circle cx="160" cy="160" r="2.6" fill="#574a35"/><path d="M 28.01 110.19 L 30.70 117.50 L 38.01 120.19 L 30.70 122.88 L 28.01 130.19 L 25.32 122.88 L 18.01 120.19 L 25.32 117.50 Z" fill="#d4a017"/></g><g font-family="GFS Didot"><text x="700" y="280" font-size="72" fill="#3a2f1c" letter-spacing="5">ALMAGESTO</text></g><text x="702" y="330" font-family="GFS Didot" font-size="33" fill="#8a5a1e" font-style="italic">ἡ Μεγίστη</text><line x1="702" y1="356" x2="1120" y2="356" stroke="#d4a017" stroke-width="1.6"/><g font-family="EB Garamond" fill="#6b5d48" font-size="29"><text x="702" y="402">Wiki de conocimiento astronómico</text><text x="702" y="440">mantenida por un LLM · patrón LLM Wiki</text></g>
</svg>
